<?xml version="1.0" encoding="UTF-8" standalone="no"?>
<svg
   xmlns:dc="http://purl.org/dc/elements/1.1/"
   xmlns:cc="http://creativecommons.org/ns#"
   xmlns:rdf="http://www.w3.org/1999/02/22-rdf-syntax-ns#"
   xmlns:svg="http://www.w3.org/2000/svg"
   xmlns="http://www.w3.org/2000/svg"
   xmlns:sodipodi="http://sodipodi.sourceforge.net/DTD/sodipodi-0.dtd"
   xmlns:inkscape="http://www.inkscape.org/namespaces/inkscape"
   viewBox="0 0 713.35878 175.8678"
   height="49.633801mm"
   width="201.3257mm"
   version="1.1"
   id="svg6"
   sodipodi:docname="logo_full.svg"
   inkscape:version="0.92.2 2405546, 2018-03-11">
  <metadata
     id="metadata12">
    <rdf:RDF>
      <cc:Work
         rdf:about="">
        <dc:format>image/svg+xml</dc:format>
        <dc:type
           rdf:resource="http://purl.org/dc/dcmitype/StillImage" />
        <dc:title />
      </cc:Work>
    </rdf:RDF>
  </metadata>
  <defs
     id="defs10" />
  <sodipodi:namedview
     pagecolor="#ffffff"
     bordercolor="#666666"
     borderopacity="1"
     objecttolerance="10"
     gridtolerance="10"
     guidetolerance="10"
     inkscape:pageopacity="0"
     inkscape:pageshadow="2"
     inkscape:window-width="1920"
     inkscape:window-height="1052"
     id="namedview8"
     showgrid="false"
     inkscape:zoom="1.4142136"
     inkscape:cx="323.36364"
     inkscape:cy="6.7496472"
     inkscape:window-x="1920"
     inkscape:window-y="0"
     inkscape:window-maximized="1"
     inkscape:current-layer="svg6"
     inkscape:measure-start="0,0"
     inkscape:measure-end="0,0" />
  <path
     inkscape:connector-curvature="0"
     id="path4558"
     style="font-style:normal;font-variant:normal;font-weight:bold;font-stretch:normal;font-size:132.05960083px;line-height:1;font-family:'Montserrat Alternates';-inkscape-font-specification:'Montserrat Alternates Bold';letter-spacing:0px;word-spacing:0px;fill:#1a1a1a;fill-opacity:1;stroke:none;stroke-width:0.68781048"
     d="m 186.46678,90.943162 q 12.94184,0 22.58219,10.168588 9.64035,10.03653 9.64035,25.88368 0,15.84716 -9.90447,26.54398 -9.90447,10.69683 -22.58219,10.69683 -12.54566,0 -20.86542,-10.43271 v 9.37623 H 145.5283 V 65.19154 h 19.80894 v 34.86373 q 8.1877,-9.112108 21.12954,-9.112108 z m -21.39366,36.844628 q 0,8.58387 4.75415,14.13038 4.8862,5.41444 11.7533,5.41444 6.8671,0 12.01743,-5.41444 5.15032,-5.54651 5.15032,-14.13038 0,-8.58387 -5.01826,-14.3945 -5.01827,-5.81062 -12.01743,-5.81062 -6.99916,0 -11.88536,5.81062 -4.75415,5.67857 -4.75415,14.3945 z" />
  <path
     inkscape:connector-curvature="0"
     id="path4560"
     style="font-style:normal;font-variant:normal;font-weight:bold;font-stretch:normal;font-size:132.05960083px;line-height:1;font-family:'Montserrat Alternates';-inkscape-font-specification:'Montserrat Alternates Bold';letter-spacing:0px;word-spacing:0px;fill:#1a1a1a;fill-opacity:1;stroke:none;stroke-width:0.68781048"
     d="M 279.30674,130.42898 V 92.131699 h 19.941 v 71.048061 h -19.941 v -9.37623 q -7.39534,10.43271 -19.14864,10.43271 -11.62125,0 -19.54482,-7.26328 -7.92358,-7.39534 -7.92358,-21.78983 V 92.131699 h 19.941 v 38.693461 q 0,16.37539 12.01742,16.37539 5.94269,0 10.30065,-4.22591 4.35797,-4.35796 4.35797,-12.54566 z" />
  <path
     inkscape:connector-curvature="0"
     id="path4562"
     style="font-style:normal;font-variant:normal;font-weight:bold;font-stretch:normal;font-size:132.05960083px;line-height:1;font-family:'Montserrat Alternates';-inkscape-font-specification:'Montserrat Alternates Bold';letter-spacing:0px;word-spacing:0px;fill:#1a1a1a;fill-opacity:1;stroke:none;stroke-width:0.68781048"
     d="m 371.56688,141.12581 q 0,10.43271 -7.79151,16.77157 -7.65946,6.33886 -19.54482,6.33886 -7.92358,0 -16.50746,-2.77325 -8.58387,-2.90531 -15.45097,-8.45182 l 8.71594,-12.4136 q 11.093,8.58388 23.63866,8.58388 3.82973,0 6.07475,-1.45266 2.24501,-1.58471 2.24501,-4.09385 0,-2.50913 -3.16943,-4.62208 -3.03737,-2.11296 -8.98005,-3.96179 -5.81063,-1.84884 -8.98006,-3.16943 -3.03737,-1.3206 -6.99916,-3.82973 -8.05563,-5.01826 -8.05563,-14.79068 0,-9.90447 7.92357,-16.111267 7.92358,-6.206801 20.46924,-6.206801 12.54566,0 25.09133,8.451815 l -7.39534,13.205963 q -9.24417,-6.33886 -18.48835,-6.33886 -9.11211,0 -9.11211,5.01826 0,2.77325 2.90531,4.35797 2.90531,1.58471 9.64035,3.69767 6.73504,2.11295 9.5083,3.30149 2.90531,1.05647 6.86709,3.43355 7.39534,4.49002 7.39534,15.05479 z" />
  <path
     inkscape:connector-curvature="0"
     id="path4564"
     style="font-style:normal;font-variant:normal;font-weight:bold;font-stretch:normal;font-size:132.05960083px;line-height:1;font-family:'Montserrat Alternates';-inkscape-font-specification:'Montserrat Alternates Bold';letter-spacing:0px;word-spacing:0px;fill:#1a1a1a;fill-opacity:1;stroke:none;stroke-width:0.68781048"
     d="M 406.50078,163.17976 H 386.69184 V 92.131699 h 19.80894 z M 388.27656,83.151646 q -3.30149,-3.43355 -3.30149,-8.319755 0,-4.886205 3.30149,-8.187695 3.43355,-3.43355 8.31975,-3.43355 4.88621,0 8.1877,3.43355 3.43355,3.30149 3.43355,8.187695 0,4.886205 -3.43355,8.319755 -3.30149,3.30149 -8.1877,3.30149 -4.8862,0 -8.31975,-3.30149 z" />
  <path
     inkscape:connector-curvature="0"
     id="path4566"
     style="font-style:normal;font-variant:normal;font-weight:bold;font-stretch:normal;font-size:132.05960083px;line-height:1;font-family:'Montserrat Alternates';-inkscape-font-specification:'Montserrat Alternates Bold';letter-spacing:0px;word-spacing:0px;fill:#1a1a1a;fill-opacity:1;stroke:none;stroke-width:0.68781048"
     d="m 445.19012,123.56188 v 39.61788 H 425.38118 V 92.131699 h 19.80894 v 7.923571 q 8.98005,-9.112108 20.20511,-9.112108 11.22507,0 18.75247,7.923576 7.65945,7.923572 7.65945,21.129532 v 43.18349 h -19.80894 v -40.14611 q 0,-16.3754 -12.01742,-16.3754 -5.94268,0 -10.43271,4.35797 -4.35796,4.22591 -4.35796,12.54566 z" />
  <path
     inkscape:connector-curvature="0"
     id="path4568"
     style="font-style:normal;font-variant:normal;font-weight:bold;font-stretch:normal;font-size:132.05960083px;line-height:1;font-family:'Montserrat Alternates';-inkscape-font-specification:'Montserrat Alternates Bold';letter-spacing:0px;word-spacing:0px;fill:#1a1a1a;fill-opacity:1;stroke:none;stroke-width:0.68781048"
     d="m 543.26706,147.99291 q 5.67856,0 10.96094,-2.77325 5.41445,-2.90531 8.58388,-7.65946 l 11.35712,12.28154 q -13.60214,14.3945 -30.76988,14.3945 -17.03569,0 -27.20428,-10.43271 -10.16859,-10.43271 -10.16859,-26.54398 0,-16.24333 11.09301,-26.27986 11.22506,-10.036528 25.75162,-10.036528 14.52655,0 24.29896,8.187695 9.77242,8.187693 10.56477,21.129533 v 2.50914 l -47.27733,19.54482 q 4.49002,5.67856 12.80978,5.67856 z m 0.6603,-39.882 q -7.26328,0 -12.94185,4.75415 -5.5465,4.75414 -5.5465,13.20596 0,1.58471 0.13206,2.37707 l 30.90195,-12.54566 q -1.71678,-7.79152 -12.54566,-7.79152 z" />
  <path
     inkscape:connector-curvature="0"
     id="path4570"
     style="font-style:normal;font-variant:normal;font-weight:bold;font-stretch:normal;font-size:132.05960083px;line-height:1;font-family:'Montserrat Alternates';-inkscape-font-specification:'Montserrat Alternates Bold';letter-spacing:0px;word-spacing:0px;fill:#1a1a1a;fill-opacity:1;stroke:none;stroke-width:0.68781048"
     d="m 645.22945,141.12581 q 0,10.43271 -7.79152,16.77157 -7.65945,6.33886 -19.54482,6.33886 -7.92357,0 -16.50745,-2.77325 -8.58387,-2.90531 -15.45097,-8.45182 l 8.71593,-12.4136 q 11.09301,8.58388 23.63867,8.58388 3.82973,0 6.07474,-1.45266 2.24502,-1.58471 2.24502,-4.09385 0,-2.50913 -3.16943,-4.62208 -3.03738,-2.11296 -8.98006,-3.96179 -5.81062,-1.84884 -8.98005,-3.16943 -3.03737,-1.3206 -6.99916,-3.82973 -8.05563,-5.01826 -8.05563,-14.79068 0,-9.90447 7.92357,-16.111267 7.92358,-6.206801 20.46924,-6.206801 12.54566,0 25.09132,8.451815 l -7.39533,13.205963 q -9.24418,-6.33886 -18.48835,-6.33886 -9.11211,0 -9.11211,5.01826 0,2.77325 2.90531,4.35797 2.90531,1.58471 9.64035,3.69767 6.73504,2.11295 9.50829,3.30149 2.90531,1.05647 6.8671,3.43355 7.39534,4.49002 7.39534,15.05479 z" />
  <path
     inkscape:connector-curvature="0"
     id="path4572"
     style="font-style:normal;font-variant:normal;font-weight:bold;font-stretch:normal;font-size:132.05960083px;line-height:1;font-family:'Montserrat Alternates';-inkscape-font-specification:'Montserrat Alternates Bold';letter-spacing:0px;word-spacing:0px;fill:#1a1a1a;fill-opacity:1;stroke:none;stroke-width:0.68781048"
     d="m 713.83855,141.12581 q 0,10.43271 -7.79152,16.77157 -7.65945,6.33886 -19.54482,6.33886 -7.92357,0 -16.50745,-2.77325 -8.58387,-2.90531 -15.45097,-8.45182 l 8.71593,-12.4136 q 11.09301,8.58388 23.63867,8.58388 3.82973,0 6.07474,-1.45266 2.24502,-1.58471 2.24502,-4.09385 0,-2.50913 -3.16943,-4.62208 -3.03738,-2.11296 -8.98006,-3.96179 -5.81062,-1.84884 -8.98005,-3.16943 -3.03737,-1.3206 -6.99916,-3.82973 -8.05563,-5.01826 -8.05563,-14.79068 0,-9.90447 7.92357,-16.111267 7.92358,-6.206801 20.46924,-6.206801 12.54566,0 25.09132,8.451815 l -7.39533,13.205963 q -9.24418,-6.33886 -18.48835,-6.33886 -9.11211,0 -9.11211,5.01826 0,2.77325 2.90531,4.35797 2.90531,1.58471 9.64035,3.69767 6.73504,2.11295 9.50829,3.30149 2.90531,1.05647 6.8671,3.43355 7.39534,4.49002 7.39534,15.05479 z" />
  <path
     inkscape:connector-curvature="0"
     id="path4539"
     style="font-style:normal;font-variant:normal;font-weight:bold;font-stretch:normal;font-size:66.75935364px;line-height:1.25;font-family:'Montserrat Alternates';-inkscape-font-specification:'Montserrat Alternates Bold';letter-spacing:0px;word-spacing:0px;fill:#1a1a1a;fill-opacity:1;stroke:none;stroke-width:0.89409846"
     d="m 204.98857,70.542037 q 0,5.273989 -3.9388,8.478438 -3.87204,3.204449 -9.88038,3.204449 -4.00556,0 -8.34492,-1.401946 -4.33936,-1.468706 -7.81085,-4.272599 L 179.41974,70.275 q 5.60779,4.339358 11.94992,4.339358 1.93603,0 3.07094,-0.734353 1.1349,-0.801112 1.1349,-2.06954 0,-1.268428 -1.60222,-2.336577 -1.53547,-1.06815 -4.53964,-2.002781 -2.93741,-0.934631 -4.53963,-1.602225 -1.53547,-0.667593 -3.53825,-1.936021 -4.07232,-2.536855 -4.07232,-7.477047 0,-5.006952 4.00556,-8.144642 4.00556,-3.137689 10.3477,-3.137689 6.34214,0 12.68428,4.272598 l -3.73852,6.675936 q -4.67316,-3.204449 -9.34631,-3.204449 -4.6064,0 -4.6064,2.536855 0,1.401947 1.46871,2.203059 1.4687,0.801112 4.87343,1.869262 3.40473,1.06815 4.80667,1.668984 1.46871,0.534075 3.47149,1.735743 3.73852,2.269818 3.73852,7.610566 z" />
  <path
     inkscape:connector-curvature="0"
     id="path4541"
     style="font-style:normal;font-variant:normal;font-weight:bold;font-stretch:normal;font-size:66.75935364px;line-height:1.25;font-family:'Montserrat Alternates';-inkscape-font-specification:'Montserrat Alternates Bold';letter-spacing:0px;word-spacing:0px;fill:#1a1a1a;fill-opacity:1;stroke:none;stroke-width:0.89409846"
     d="m 229.85852,73.34593 q 5.00695,0 9.01251,-5.006951 l 5.94158,6.675935 q -6.94297,7.21001 -15.02085,7.21001 -8.07788,0 -13.68567,-5.073711 -5.54102,-5.14047 -5.54102,-13.35187 0,-8.27816 5.60778,-13.418631 5.67455,-5.207229 13.41863,-5.207229 3.87204,0 7.81085,1.602224 4.00556,1.602225 7.00973,4.739914 l -5.20723,6.809455 q -1.73574,-2.06954 -4.2726,-3.204449 -2.4701,-1.134909 -4.94019,-1.134909 -3.9388,0 -6.80946,2.603614 -2.80389,2.536856 -2.80389,7.143251 0,4.539636 2.80389,7.076492 2.87066,2.536855 6.67594,2.536855 z" />
  <path
     inkscape:connector-curvature="0"
     id="path4543"
     style="font-style:normal;font-variant:normal;font-weight:bold;font-stretch:normal;font-size:66.75935364px;line-height:1.25;font-family:'Montserrat Alternates';-inkscape-font-specification:'Montserrat Alternates Bold';letter-spacing:0px;word-spacing:0px;fill:#1a1a1a;fill-opacity:1;stroke:none;stroke-width:0.89409846"
     d="m 266.84528,82.224924 q -6.87621,0 -12.01668,-5.14047 -5.14047,-5.14047 -5.14047,-13.48539 0,-8.411678 5.27399,-13.41863 5.27399,-5.006951 12.21696,-5.006951 5.40751,0 9.41307,3.605005 v -3.004171 h 10.08066 v 35.916532 h -10.08066 v -2.937411 q -4.2726,3.471486 -9.74687,3.471486 z m -7.07649,-18.425581 q 0,4.406117 2.60362,7.21001 2.60361,2.737133 6.0751,2.737133 3.47148,0 5.87482,-2.737133 2.40334,-2.803893 2.40334,-7.143251 0,-4.406117 -2.40334,-7.343529 -2.40334,-2.937412 -5.94158,-2.937412 -3.53825,0 -6.0751,2.937412 -2.53686,2.870652 -2.53686,7.27677 z" />
  <path
     inkscape:connector-curvature="0"
     id="path4545"
     style="font-style:normal;font-variant:normal;font-weight:bold;font-stretch:normal;font-size:66.75935364px;line-height:1.25;font-family:'Montserrat Alternates';-inkscape-font-specification:'Montserrat Alternates Bold';letter-spacing:0px;word-spacing:0px;fill:#1a1a1a;fill-opacity:1;stroke:none;stroke-width:0.89409846"
     d="m 306.55562,35.026061 v 34.04727 q 0,2.06954 1.06815,3.271209 1.06815,1.134909 2.53686,1.134909 2.80389,0 4.73991,-2.536856 l 3.73853,7.009733 q -4.67316,4.272598 -9.88039,4.272598 -5.14047,0 -8.74547,-3.404727 -3.53825,-3.404727 -3.53825,-9.27955 V 35.026061 Z" />
  <path
     inkscape:connector-curvature="0"
     id="path4547"
     style="font-style:normal;font-variant:normal;font-weight:bold;font-stretch:normal;font-size:66.75935364px;line-height:1.25;font-family:'Montserrat Alternates';-inkscape-font-specification:'Montserrat Alternates Bold';letter-spacing:0px;word-spacing:0px;fill:#1a1a1a;fill-opacity:1;stroke:none;stroke-width:0.89409846"
     d="m 334.00102,81.690849 h -10.0139 V 45.774317 h 10.0139 z m -9.21279,-40.456168 q -1.66898,-1.735743 -1.66898,-4.205839 0,-2.470096 1.66898,-4.13908 1.73575,-1.735743 4.20584,-1.735743 2.4701,0 4.13908,1.735743 1.73575,1.668984 1.73575,4.13908 0,2.470096 -1.73575,4.205839 -1.66898,1.668984 -4.13908,1.668984 -2.47009,0 -4.20584,-1.668984 z" />
  <path
     inkscape:connector-curvature="0"
     id="path4549"
     style="font-style:normal;font-variant:normal;font-weight:bold;font-stretch:normal;font-size:66.75935364px;line-height:1.25;font-family:'Montserrat Alternates';-inkscape-font-specification:'Montserrat Alternates Bold';letter-spacing:0px;word-spacing:0px;fill:#1a1a1a;fill-opacity:1;stroke:none;stroke-width:0.89409846"
     d="m 360.50239,74.013524 q 2.87066,0 5.54103,-1.401947 2.73713,-1.468706 4.33936,-3.872042 l 5.7413,6.20862 q -6.87621,7.276769 -15.55493,7.276769 -8.61195,0 -13.75242,-5.273989 -5.14047,-5.273989 -5.14047,-13.41863 0,-8.2114 5.60778,-13.285111 5.67455,-5.073711 13.01807,-5.073711 7.34353,0 12.28373,4.13908 4.94019,4.13908 5.34074,10.681496 v 1.268428 l -23.89984,9.880384 q 2.26981,2.870653 6.47565,2.870653 z m 0.3338,-20.161325 q -3.67176,0 -6.54242,2.403337 -2.80389,2.403336 -2.80389,6.675935 0,0.801112 0.0668,1.201668 l 15.62169,-6.342138 q -0.86787,-3.938802 -6.34214,-3.938802 z" />
  <path
     sodipodi:type="star"
     style="fill:#813665;fill-opacity:1;stroke:#ffffff;stroke-width:0.9375;stroke-miterlimit:4;stroke-dasharray:none;stroke-opacity:1"
     id="path4512"
     sodipodi:sides="3"
     sodipodi:cx="74.53346"
     sodipodi:cy="74.111785"
     sodipodi:r1="16.120922"
     sodipodi:r2="8.060462"
     sodipodi:arg1="1.5707963"
     sodipodi:arg2="2.6179939"
     inkscape:flatsided="false"
     inkscape:rounded="0"
     inkscape:randomized="0"
     d="m 74.533463,90.232708 -6.980565,-12.090691 -6.980564,-12.090692 13.961129,-1e-6 13.961127,0 -6.980563,12.090693 z"
     inkscape:transform-center-y="4.0302316"
     inkscape:transform-center-x="-3.2692633e-06" />
  <path
     sodipodi:type="star"
     style="fill:#7e3972;fill-opacity:1;stroke:#ffffff;stroke-width:0.9375;stroke-miterlimit:4;stroke-dasharray:none;stroke-opacity:1"
     id="path4512-1"
     sodipodi:sides="3"
     sodipodi:cx="88.494588"
     sodipodi:cy="-82.172248"
     sodipodi:r1="16.12092"
     sodipodi:r2="8.060462"
     sodipodi:arg1="1.5707963"
     sodipodi:arg2="2.6179939"
     inkscape:flatsided="false"
     inkscape:rounded="0"
     inkscape:randomized="0"
     d="m 88.494591,-66.051329 -6.980565,-12.090689 -6.980562,-12.090691 13.961127,-2e-6 13.961129,2e-6 -6.980564,12.090691 z"
     inkscape:transform-center-y="-4.0302261"
     transform="scale(1,-1)"
     inkscape:transform-center-x="3.2685041e-06" />
  <path
     sodipodi:type="star"
     style="fill:#853252;fill-opacity:1;stroke:#ffffff;stroke-width:0.9375;stroke-miterlimit:4;stroke-dasharray:none;stroke-opacity:1"
     id="path4512-1-9"
     sodipodi:sides="3"
     sodipodi:cx="74.53346"
     sodipodi:cy="-57.990863"
     sodipodi:r1="16.12092"
     sodipodi:r2="8.060462"
     sodipodi:arg1="1.5707963"
     sodipodi:arg2="2.6179939"
     inkscape:flatsided="false"
     inkscape:rounded="0"
     inkscape:randomized="0"
     d="m 74.533463,-41.869944 -6.980565,-12.090689 -6.980562,-12.090691 13.961127,-2e-6 13.961126,2e-6 -6.980562,12.090691 z"
     inkscape:transform-center-y="-4.0302248"
     transform="scale(1,-1)"
     inkscape:transform-center-x="-3.2692633e-06" />
  <path
     sodipodi:type="star"
     style="fill:#733e79;fill-opacity:1;stroke:#ffffff;stroke-width:0.9375;stroke-miterlimit:4;stroke-dasharray:none;stroke-opacity:1"
     id="path4512-0"
     sodipodi:sides="3"
     sodipodi:cx="88.494588"
     sodipodi:cy="98.293166"
     sodipodi:r1="16.12092"
     sodipodi:r2="8.060462"
     sodipodi:arg1="1.5707963"
     sodipodi:arg2="2.6179939"
     inkscape:flatsided="false"
     inkscape:rounded="0"
     inkscape:randomized="0"
     d="m 88.494591,114.41409 -6.980565,-12.09069 -6.980562,-12.090693 13.961127,-2e-6 13.961129,2e-6 -6.980564,12.090693 z"
     inkscape:transform-center-y="4.0302255"
     inkscape:transform-center-x="3.2685041e-06" />
  <path
     sodipodi:type="star"
     style="fill:#5f4770;fill-opacity:1;stroke:#ffffff;stroke-width:0.9375;stroke-miterlimit:4;stroke-dasharray:none;stroke-opacity:1"
     id="path4512-0-6"
     sodipodi:sides="3"
     sodipodi:cx="74.53346"
     sodipodi:cy="122.47455"
     sodipodi:r1="16.12092"
     sodipodi:r2="8.060462"
     sodipodi:arg1="1.5707963"
     sodipodi:arg2="2.6179939"
     inkscape:flatsided="false"
     inkscape:rounded="0"
     inkscape:randomized="0"
     d="m 74.533463,138.59547 -6.980565,-12.09069 -6.980562,-12.09069 13.961127,0 13.961126,0 -6.980562,12.09069 z"
     inkscape:transform-center-y="4.0302335"
     inkscape:transform-center-x="-3.2692633e-06" />
  <path
     sodipodi:type="star"
     style="fill:#892e46;fill-opacity:1;stroke:#ffffff;stroke-width:0.9375;stroke-miterlimit:4;stroke-dasharray:none;stroke-opacity:1"
     id="path4512-7"
     sodipodi:sides="3"
     sodipodi:cx="88.494588"
     sodipodi:cy="49.930404"
     sodipodi:r1="16.12092"
     sodipodi:r2="8.060462"
     sodipodi:arg1="1.5707963"
     sodipodi:arg2="2.6179939"
     inkscape:flatsided="false"
     inkscape:rounded="0"
     inkscape:randomized="0"
     d="m 88.494591,66.051325 -6.980565,-12.090689 -6.980562,-12.090691 13.961127,-2e-6 13.961129,10e-7 -6.980564,12.090692 z"
     inkscape:transform-center-y="4.0302302"
     inkscape:transform-center-x="3.2685041e-06" />
  <path
     sodipodi:type="star"
     style="fill:#bd792b;fill-opacity:1;stroke:#ffffff;stroke-width:0.9375;stroke-miterlimit:4;stroke-dasharray:none;stroke-opacity:1"
     id="path4512-1-9-7"
     sodipodi:sides="3"
     sodipodi:cx="88.494588"
     sodipodi:cy="-33.809474"
     sodipodi:r1="16.12092"
     sodipodi:r2="8.060462"
     sodipodi:arg1="1.5707963"
     sodipodi:arg2="2.6179939"
     inkscape:flatsided="false"
     inkscape:rounded="0"
     inkscape:randomized="0"
     d="m 88.494591,-17.688555 -6.980565,-12.090689 -6.980562,-12.090691 13.961127,-2e-6 13.961129,2e-6 -6.980564,12.090691 z"
     inkscape:transform-center-y="-4.0302259"
     transform="scale(1,-1)"
     inkscape:transform-center-x="3.2685042e-06" />
  <path
     sodipodi:type="star"
     style="fill:#b77531;fill-opacity:1;stroke:#ffffff;stroke-width:0.9375;stroke-miterlimit:4;stroke-dasharray:none;stroke-opacity:1"
     id="path4512-7-4"
     sodipodi:sides="3"
     sodipodi:cx="60.572332"
     sodipodi:cy="49.930404"
     sodipodi:r1="16.12092"
     sodipodi:r2="8.060462"
     sodipodi:arg1="1.5707963"
     sodipodi:arg2="2.6179939"
     inkscape:flatsided="false"
     inkscape:rounded="0"
     inkscape:randomized="0"
     d="m 60.572331,66.051325 -6.980565,-12.090689 -6.980562,-12.090691 13.961127,-2e-6 13.961126,10e-7 -6.980562,12.090692 z"
     inkscape:transform-center-y="4.030231" />
  <path
     sodipodi:type="star"
     style="fill:#a85b31;fill-opacity:1;stroke:#ffffff;stroke-width:0.9375;stroke-miterlimit:4;stroke-dasharray:none;stroke-opacity:1"
     id="path4512-7-0"
     sodipodi:sides="3"
     sodipodi:cx="60.572328"
     sodipodi:cy="-82.17224"
     sodipodi:r1="16.12092"
     sodipodi:r2="8.060462"
     sodipodi:arg1="1.5707963"
     sodipodi:arg2="2.6179939"
     inkscape:flatsided="false"
     inkscape:rounded="0"
     inkscape:randomized="0"
     d="M 60.572327,-66.051321 53.591762,-78.14201 46.6112,-90.232701 l 13.961127,-2e-6 13.961126,10e-7 -6.980562,12.090692 z"
     inkscape:transform-center-y="-4.0302261"
     transform="scale(1,-1)"
     inkscape:transform-center-x="1.1925319e-06" />
  <path
     sodipodi:type="star"
     style="fill:#564374;fill-opacity:1;stroke:#ffffff;stroke-width:0.9375;stroke-miterlimit:4;stroke-dasharray:none;stroke-opacity:1"
     id="path4512-1-5-4"
     sodipodi:sides="3"
     sodipodi:cx="88.494588"
     sodipodi:cy="-130.53503"
     sodipodi:r1="16.12092"
     sodipodi:r2="8.060462"
     sodipodi:arg1="1.5707963"
     sodipodi:arg2="2.6179939"
     inkscape:flatsided="false"
     inkscape:rounded="0"
     inkscape:randomized="0"
     d="m 88.494591,-114.41411 -6.980565,-12.09069 -6.980562,-12.09069 13.961127,-10e-6 13.961129,10e-6 -6.980564,12.09069 z"
     inkscape:transform-center-y="-4.0302233"
     transform="scale(1,-1)"
     inkscape:transform-center-x="3.2685042e-06" />
  <path
     sodipodi:type="star"
     style="fill:#8f2834;fill-opacity:1;stroke:#ffffff;stroke-width:0.9375;stroke-miterlimit:4;stroke-dasharray:none;stroke-opacity:1"
     id="path4512-1-5-4-7"
     sodipodi:sides="3"
     sodipodi:cx="102.45572"
     sodipodi:cy="-57.990855"
     sodipodi:r1="16.120918"
     sodipodi:r2="8.060462"
     sodipodi:arg1="1.5707963"
     sodipodi:arg2="2.6179939"
     inkscape:flatsided="false"
     inkscape:rounded="0"
     inkscape:randomized="0"
     d="m 102.45572,-41.869938 -6.980566,-12.090687 -6.98056,-12.09069 13.961126,-3e-6 13.96112,2e-6 -6.98056,12.090691 z"
     inkscape:transform-center-y="-4.0302267"
     transform="scale(1,-1)"
     inkscape:transform-center-x="2.6214062e-06" />
  <path
     sodipodi:type="star"
     style="fill:#924433;fill-opacity:1;stroke:#ffffff;stroke-width:0.9375;stroke-miterlimit:4;stroke-dasharray:none;stroke-opacity:1"
     id="path4512-1-5-48"
     sodipodi:sides="3"
     sodipodi:cx="46.611207"
     sodipodi:cy="122.47455"
     sodipodi:r1="16.12092"
     sodipodi:r2="8.060462"
     sodipodi:arg1="1.5707963"
     sodipodi:arg2="2.6179939"
     inkscape:flatsided="false"
     inkscape:rounded="0"
     inkscape:randomized="0"
     d="m 46.611206,138.59547 -6.980565,-12.09069 -6.980562,-12.09069 13.961127,0 13.961126,0 -6.980561,12.09069 z"
     inkscape:transform-center-y="4.0302292"
     inkscape:transform-center-x="1.3951008e-06" />
  <path
     sodipodi:type="star"
     style="fill:#513f62;fill-opacity:1;stroke:#ffffff;stroke-width:0.9375;stroke-miterlimit:4;stroke-dasharray:none;stroke-opacity:1"
     id="path4512-0-6-5"
     sodipodi:sides="3"
     sodipodi:cx="88.494588"
     sodipodi:cy="146.65594"
     sodipodi:r1="16.12092"
     sodipodi:r2="8.060462"
     sodipodi:arg1="1.5707963"
     sodipodi:arg2="2.6179939"
     inkscape:flatsided="false"
     inkscape:rounded="0"
     inkscape:randomized="0"
     d="m 88.494591,162.77687 -6.980565,-12.09069 -6.980562,-12.09069 13.961127,-1e-5 13.961129,0 -6.980564,12.0907 z"
     inkscape:transform-center-y="4.030237"
     inkscape:transform-center-x="3.2685042e-06" />
  <path
     sodipodi:type="star"
     style="fill:#5e3f78;fill-opacity:1;stroke:#ffffff;stroke-width:0.9375;stroke-miterlimit:4;stroke-dasharray:none;stroke-opacity:1"
     id="path4512-0-8"
     sodipodi:sides="3"
     sodipodi:cx="102.45572"
     sodipodi:cy="122.47455"
     sodipodi:r1="16.12092"
     sodipodi:r2="8.060462"
     sodipodi:arg1="1.5707963"
     sodipodi:arg2="2.6179939"
     inkscape:flatsided="false"
     inkscape:rounded="0"
     inkscape:randomized="0"
     d="m 102.45572,138.59547 -6.980566,-12.09069 -6.980562,-12.09069 13.961128,0 13.96113,0 -6.98057,12.09069 z"
     inkscape:transform-center-y="4.0302335"
     inkscape:transform-center-x="2.1768771e-06" />
  <path
     sodipodi:type="star"
     style="fill:#674176;fill-opacity:1;stroke:#ffffff;stroke-width:0.9375;stroke-miterlimit:4;stroke-dasharray:none;stroke-opacity:1"
     id="path4512-1-5-2"
     sodipodi:sides="3"
     sodipodi:cx="102.45572"
     sodipodi:cy="-106.35362"
     sodipodi:r1="16.12092"
     sodipodi:r2="8.060462"
     sodipodi:arg1="1.5707963"
     sodipodi:arg2="2.6179939"
     inkscape:flatsided="false"
     inkscape:rounded="0"
     inkscape:randomized="0"
     d="m 102.45572,-90.232702 -6.980566,-12.090688 -6.980562,-12.09069 13.961128,0 13.96113,0 -6.98057,12.09069 z"
     inkscape:transform-center-y="-4.0302278"
     transform="scale(1,-1)"
     inkscape:transform-center-x="2.1768771e-06" />
  <path
     sodipodi:type="star"
     style="fill:#584070;fill-opacity:1;stroke:#ffffff;stroke-width:0.9375;stroke-miterlimit:4;stroke-dasharray:none;stroke-opacity:1"
     id="path4512-0-6-0"
     sodipodi:sides="3"
     sodipodi:cx="60.572332"
     sodipodi:cy="-130.535"
     sodipodi:r1="16.12092"
     sodipodi:r2="8.060462"
     sodipodi:arg1="1.5707963"
     sodipodi:arg2="2.6179939"
     inkscape:flatsided="false"
     inkscape:rounded="0"
     inkscape:randomized="0"
     d="m 60.572331,-114.41408 -6.980565,-12.09069 -6.980562,-12.09069 13.961127,-1e-5 13.961126,1e-5 -6.980562,12.09069 z"
     inkscape:transform-center-y="-4.0302371"
     transform="scale(1,-1)" />
  <path
     sodipodi:type="star"
     style="fill:#49376d;fill-opacity:1;stroke:#ffffff;stroke-width:0.9375;stroke-miterlimit:4;stroke-dasharray:none;stroke-opacity:1"
     id="path4512-0-6-6"
     sodipodi:sides="3"
     sodipodi:cx="60.572332"
     sodipodi:cy="146.65591"
     sodipodi:r1="16.12092"
     sodipodi:r2="8.060462"
     sodipodi:arg1="1.5707963"
     sodipodi:arg2="2.6179939"
     inkscape:flatsided="false"
     inkscape:rounded="0"
     inkscape:randomized="0"
     d="m 60.572331,162.77683 -6.980565,-12.09068 -6.980562,-12.0907 13.961127,0 13.961126,0 -6.980562,12.0907 z"
     inkscape:transform-center-y="4.0302335" />
  <path
     sodipodi:type="star"
     style="fill:#513b66;fill-opacity:1;stroke:#ffffff;stroke-width:0.9375;stroke-miterlimit:4;stroke-dasharray:none;stroke-opacity:1"
     id="path4512-0-6-0-6"
     sodipodi:sides="3"
     sodipodi:cx="74.533475"
     sodipodi:cy="-154.7164"
     sodipodi:r1="16.120918"
     sodipodi:r2="8.060462"
     sodipodi:arg1="1.5707963"
     sodipodi:arg2="2.6179939"
     inkscape:flatsided="false"
     inkscape:rounded="0"
     inkscape:randomized="0"
     d="m 74.533478,-138.59548 -6.980565,-12.09069 -6.98056,-12.09069 13.961125,0 13.961124,0 -6.980559,12.09069 z"
     inkscape:transform-center-y="-4.0302415"
     transform="scale(1,-1)"
     inkscape:transform-center-x="-4.1583215e-06" />
  <path
     sodipodi:type="star"
     style="fill:#9e4933;fill-opacity:1;stroke:#ffffff;stroke-width:0.9375;stroke-miterlimit:4;stroke-dasharray:none;stroke-opacity:1"
     id="path4512-7-0-4"
     sodipodi:sides="3"
     sodipodi:cx="74.533475"
     sodipodi:cy="-106.35364"
     sodipodi:r1="16.12092"
     sodipodi:r2="8.060462"
     sodipodi:arg1="1.5707963"
     sodipodi:arg2="2.6179939"
     inkscape:flatsided="false"
     inkscape:rounded="0"
     inkscape:randomized="0"
     d="m 74.533478,-90.232718 -6.980565,-12.090692 -6.980562,-12.09069 13.961127,0 13.961126,0 -6.980561,12.09069 z"
     inkscape:transform-center-y="-4.0302243"
     transform="scale(1,-1)"
     inkscape:transform-center-x="-4.1583214e-06" />
  <path
     sodipodi:type="star"
     style="fill:#473470;fill-opacity:1;stroke:#ffffff;stroke-width:0.9375;stroke-miterlimit:4;stroke-dasharray:none;stroke-opacity:1"
     id="path4512-0-6-0-6-2"
     sodipodi:sides="3"
     sodipodi:cx="46.611207"
     sodipodi:cy="-154.71637"
     sodipodi:r1="16.120916"
     sodipodi:r2="8.060462"
     sodipodi:arg1="1.5707963"
     sodipodi:arg2="2.6179939"
     inkscape:flatsided="false"
     inkscape:rounded="0"
     inkscape:randomized="0"
     d="m 46.611206,-138.59545 -6.980565,-12.09069 -6.980558,-12.09069 13.961123,0 13.961123,0 -6.980558,12.09069 z"
     inkscape:transform-center-y="-4.0302449"
     transform="scale(1,-1)"
     inkscape:transform-center-x="1.3951008e-06" />
  <path
     sodipodi:type="star"
     style="fill:#813535;fill-opacity:1;stroke:#ffffff;stroke-width:0.9375;stroke-miterlimit:4;stroke-dasharray:none;stroke-opacity:1"
     id="path4512-1-5-48-8"
     sodipodi:sides="3"
     sodipodi:cx="32.650083"
     sodipodi:cy="146.6559"
     sodipodi:r1="16.120918"
     sodipodi:r2="8.060461"
     sodipodi:arg1="1.5707963"
     sodipodi:arg2="2.6179939"
     inkscape:flatsided="false"
     inkscape:rounded="0"
     inkscape:randomized="0"
     d="m 32.650082,162.77682 -6.980564,-12.09069 -6.980561,-12.09069 13.961125,0 13.961124,0 -6.98056,12.09069 z"
     inkscape:transform-center-y="4.0302255"
     inkscape:transform-center-x="1.8199342e-06" />
</svg>
